<?xml version="1.0" encoding="UTF-8" standalone="no"?>
<svg xmlns:dc="http://purl.org/dc/elements/1.1/" xmlns:cc="http://creativecommons.org/ns#" xmlns:rdf="http://www.w3.org/1999/02/22-rdf-syntax-ns#" xmlns:svg="http://www.w3.org/2000/svg" xmlns="http://www.w3.org/2000/svg" xmlns:sodipodi="http://sodipodi.sourceforge.net/DTD/sodipodi-0.dtd" xmlns:inkscape="http://www.inkscape.org/namespaces/inkscape" version="1.1" id="svg2" xml:space="preserve" width="384.30667" height="51.013332" viewBox="0 0 384.30667 51.013332" sodipodi:docname="funimation-seeklogo.com.eps"><metadata id="metadata8"><rdf:RDF><cc:Work rdf:about=""><dc:format>image/svg+xml</dc:format><dc:type rdf:resource="http://purl.org/dc/dcmitype/StillImage"/></cc:Work></rdf:RDF></metadata><defs id="defs6"/><sodipodi:namedview pagecolor="#ffffff" bordercolor="#666666" borderopacity="1" objecttolerance="10" gridtolerance="10" guidetolerance="10" inkscape:pageopacity="0" inkscape:pageshadow="2" inkscape:window-width="640" inkscape:window-height="480" id="namedview4"/><g id="g10" inkscape:groupmode="layer" inkscape:label="ink_ext_XXXXXX" transform="matrix(1.3333333,0,0,-1.3333333,0,51.013333)"><g id="g12" transform="scale(0.1)"><path d="m 2586.5,190.355 v 180.926 h 51.2 l 0.3,-23.648 0.29,-23.645 5.5,7.403 c 18.15,24.425 46.42,41.593 79.16,48.097 13.44,2.66 44.42,2.371 61.06,-0.57 50.58,-8.965 81.15,-35.742 91.76,-80.402 5.84,-24.59 5.71,-21.336 6.14,-160.203 L 2882.3,9.41406 h -26.21 -26.2 V 129.441 c 0,128.352 -0.19,133.379 -5.39,152.125 -7.99,28.731 -26.99,46.668 -56.1,52.957 -10.14,2.188 -33.96,2.504 -44.19,0.594 -41.22,-7.722 -70.3,-36.777 -81.6,-81.558 -4.57,-18.067 -4.86,-26.289 -4.86,-137.973 V 9.41406 h -25.62 -25.62 z M 2379.2,83.6328 c 11.07,2.207 25.95,9.5508 33.03,16.3399 6.99,6.7073 13.34,16.4803 16.21,24.9613 1.21,3.621 2.21,6.968 2.21,7.437 0,0.481 -32.24,0.859 -71.66,0.859 h -71.66 l 0.65,-4 c 1.04,-6.425 7.79,-18.878 13.82,-25.48 9.26,-10.1758 21.31,-16.8164 36.52,-20.1758 8.93,-1.9726 30.83,-1.9336 40.88,0.086 z m -45.68,-72.6875 c -21.29,3.0703 -39.97,8.7891 -58.18,17.8633 -91.37,45.4609 -129.38,155.1294 -85.77,247.4684 37.07,78.461 124.7,120.914 210.11,101.801 71.47,-15.996 126.31,-72.039 142.01,-145.14 2.94,-13.645 4.04,-44.711 2.15,-59.872 -2.61,-20.793 -8.82,-41.242 -18.35,-60.351 -10.23,-20.508 -20.52,-34.3166 -38.65,-51.7384 -27.37,-26.3086 -58.12,-41.8047 -97.28,-49.0508 -12.12,-2.2383 -43.46,-2.79299 -56.04,-0.9805 z M 2079.46,190.355 v 180.926 h 51.24 V 9.41406 h -25.61 -25.63 z m -1078.11,0 v 180.926 h 48 l 0.29,-24.734 0.29,-24.734 5.98,7.925 c 19.32,25.59 41.42,40.95 68.18,47.383 33.94,8.149 68.25,5.102 95.68,-8.508 19.09,-9.476 31.98,-21.773 41.01,-39.148 2.39,-4.59 4.49,-8.356 4.68,-8.356 0.18,0 2.54,3.348 5.25,7.438 17.54,26.367 45.39,43.789 81.35,50.867 11.48,2.266 38.23,2.535 51.19,0.508 29.2,-4.551 49.55,-14.418 65.54,-31.774 17.4,-18.878 26.62,-44.433 28.93,-80.183 0.57,-8.641 1.04,-70.352 1.04,-137.125 l 0.03,-121.42594 h -26.15 -26.17 V 135.664 c 0,80.563 -0.39,129.531 -1.1,135.305 -3.52,28.847 -14.92,48.418 -33.2,57.043 -9.97,4.703 -17.53,6.633 -31.74,8.105 -43.93,4.547 -76.98,-13.347 -92.44,-50.031 -4.45,-10.543 -6.43,-17.469 -9.3,-32.402 -2.26,-11.864 -2.32,-14.332 -2.7,-128.196 L 1275.6,9.41406 h -26.09 -26.07 l -0.31,133.69894 -0.32,133.696 -2.4,9.07 c -5.02,18.961 -14.93,33.871 -27.29,41.09 -13.6,7.937 -30.93,11.14 -49.86,9.207 -25.16,-2.571 -41.32,-9.707 -57.08,-25.207 -15.97,-15.715 -25.63,-36.832 -31.05,-67.879 -1.54,-8.77 -1.82,-24.258 -2.2,-121.86 L 1052.51,9.41406 h -25.57 -25.56 V 190.348 Z m -96.069,0 v 180.926 h 52.297 V 9.41406 h -26.152 -26.145 z m -334.109,0 v 180.926 h 52.266 l 0.292,-23.621 0.293,-23.613 3.692,5.738 c 5.234,8.121 19.375,21.945 29.305,28.633 15.722,10.598 35.382,18.414 54.457,21.66 9.707,1.652 38.777,1.543 51.851,-0.195 51.352,-6.836 84.953,-33.985 96.582,-78.031 6.438,-24.418 6.203,-18.625 6.645,-161.391 L 866.953,9.42578 H 841.348 815.742 L 815.344,132.441 c -0.449,132.582 -0.41,131.567 -6.172,150.786 -7.524,25.074 -24.152,42.128 -48.274,49.519 -16.777,5.137 -43.066,5.176 -61.386,0.109 -33.887,-9.394 -59.309,-35.929 -70.11,-73.175 -5.894,-20.364 -5.867,-19.625 -5.879,-139.492 V 9.43359 H 597.371 571.223 V 190.375 Z M 0.402344,139.902 C 0.820313,282.648 0.507813,275.605 7.16797,297.629 22.4883,348.492 64.9805,377.23 131.816,381.926 c 20.215,1.414 48.418,-0.227 64.414,-3.746 l 2.403,-0.539 v -24.325 -24.339 l -9.871,1.492 c -5.793,0.879 -19.114,1.543 -32.285,1.617 -19.543,0.113 -23.848,-0.195 -33.547,-2.285 -33.3714,-7.211 -54.3284,-23.129 -64.3089,-48.84 -5.0078,-12.902 -6.3047,-23.734 -5.9727,-50.117 l 0.293,-23.426 60.5746,-0.285 60.578,-0.293 V 182.82 158.816 H 113.777 53.4688 V 84.0938 9.36328 H 26.7266 0 L 0.402344,139.871 Z M 1973.79,7.33594 c -31.94,3.79686 -49.64,17.17576 -56.04,42.34376 -3.49,13.7656 -3.7,22 -3.72,148.9493 l -0.02,127.828 h -30.95 -30.96 v 22.414 22.422 h 92.87 92.87 v -22.422 -22.414 h -36.3 -36.29 l 0.02,-119.285 c 0.03,-113.3048 0.39,-128.6876 3.15,-138.9689 2.65,-9.8359 9.93,-15.3593 22.61,-17.1953 6.42,-0.9101 36.98,0.3008 43.86,1.7266 l 2.94,0.625 V 30.4883 7.62891 l -19.38,-0.71485 c -22.98,-0.82812 -35.22,-0.70312 -44.67,0.42188 z m -292.4,39.03126 c 40.31,6.875 70.09,27.9961 85.32,60.4688 7.82,16.687 8.79,22.754 9.33,58.164 0.29,17.168 0.22,31.227 -0.02,31.227 -0.31,0 -2.6,-0.918 -5.17,-2.063 -9.97,-4.375 -36.07,-9.418 -77.79,-14.992 -68.43,-9.172 -100.87,-25.234 -108.46,-53.774 -1.95,-7.332 -1.89,-23.296 0.17,-31.0503 6.28,-24.1211 28.15,-43.0469 56.09,-48.5274 8.03,-1.5898 29.8,-1.2812 40.56,0.5469 z M 1634.38,0.976563 c -20.85,2.003907 -41.61,8.144527 -55.99,16.574237 -9.71,5.6797 -23.65,18.582 -29.72,27.5 -5.55,8.1797 -11.83,21.8242 -14.06,30.5547 -3.15,12.4218 -4.38,30.7105 -2.97,44.6605 2.33,23.125 8.76,38.98 21.31,52.527 15.75,17.027 33.13,26.918 61.69,35.094 17.12,4.91 30.57,7.215 72.55,12.39 55.77,6.891 61.88,7.805 68.51,10.286 7.83,2.933 14.25,9.363 17.49,17.539 2.19,5.546 2.49,8.121 2.51,21.253 0.01,12.637 -0.35,16.176 -2.46,22.95 -7.42,24.004 -24.84,37.422 -54.64,42.062 -43.14,6.707 -79.95,-1.094 -100.7,-21.328 -11.7,-11.418 -19.82,-32.891 -19.85,-52.492 l -0.01,-5.606 h -26.15 -26.16 l 0.02,2.407 c 0.12,10.172 4.39,32.265 8.77,45.097 10.09,29.559 35.09,55.168 65.15,66.758 25.76,9.938 59.69,14.277 91.48,11.727 42.8,-3.45 65.39,-12.02 85.97,-32.578 15.3,-15.305 22.54,-28.375 27.96,-50.508 1.55,-6.301 1.83,-20.254 2.38,-118.156 0.61,-109.8833 0.65,-111.0669 2.85,-115.2857 5.3,-10.164 18.3,-12.7539 32.73,-6.5117 l 4,1.7266 V 36.2617 12.8906 l -8.81,-1.4648 c -10.81,-1.79689 -34.55,-1.84767 -42.24,-0.086 -13.09,2.9844 -23.99,11.2579 -29.53,22.3594 -3.13,6.2891 -5.84,17.668 -5.86,24.6524 -0.01,2.5468 -0.45,4.4687 -0.96,4.2656 -0.51,-0.1953 -3.78,-3.9649 -7.29,-8.3594 -19.46,-24.5703 -38.03,-38.3281 -62.54,-46.32811 -21.33,-6.96094 -48.89,-9.51172 -75.43,-6.953127 z M 364.094,0.890625 C 351.582,2.07813 339.609,4.39453 328.02,7.89063 284.133,21.0938 252.305,55.4375 240.129,102.734 c -5.742,22.278 -5.52,16.7 -5.949,147.637 l -0.403,121.949 h 25.129 25.125 V 255.934 c 0,-76.395 0.403,-119.957 1.157,-126.762 4.351,-39.0353 27.761,-65.6095 69.285,-78.6368 20.332,-6.3868 36.66,-6.6797 56.425,-1.0118 35.762,10.2422 57.063,32.6172 64.129,67.3396 2.153,10.547 2.207,13.735 2.207,133.137 v 122.32 h 26.692 26.687 V 252.641 c 0,-129.606 -0.027,-130.2 -5.886,-151.989 C 511.824,52.6875 478.723,18.7617 433.008,6.67188 412.297,1.19141 385.012,-1.09375 364.094,0.890625 v 0" style="fill:#554aa3;fill-opacity:1;fill-rule:nonzero;stroke:none" id="path14"/></g></g></svg>