<?xml version="1.0" encoding="UTF-8" standalone="no"?>
<!DOCTYPE svg PUBLIC "-//W3C//DTD SVG 20010904//EN" "http://www.w3.org/TR/2001/REC-SVG-20010904/DTD/svg10.dtd">
<svg version="1.0" xmlns="http://www.w3.org/2000/svg" width="1120.000000pt" height="630.000000pt" viewBox="0 0 1120.000000 630.000000" preserveAspectRatio="xMidYMid meet" style="background-color: #ffea62">

<g transform="translate(0.000000,630.000000) scale(0.100000,-0.100000)" fill="#000000" stroke="none">
<path d="M1925 4099 c-159 -93 -374 -217 -477 -276 l-188 -108 0 -561 0 -561 471 -273 c259 -150 479 -274 488 -277 9 -2 99 45 201 104 102 60 317 184 478 277 l292 170 0 560 0 561 -53 29 c-28 16 -245 141 -480 278 -236 136 -432 248 -435 247 -4 0 -137 -77 -297 -170z m-8 -1020 c164 -95 302 -172 308 -172 5 0 147 79 315 176 l305 177 3 -222 c1 -123 1 -227 -2 -233 -2 -6 -73 -51 -157 -100 -85 -49 -222 -128 -306 -177 -83 -48 -154 -88 -158 -88 -3 0 -147 82 -320 182 l-315 182 0 229 c0 201 2 228 15 223 9 -3 149 -83 312 -177z"/>
<path d="M3550 4035 c0 -6 103 -225 285 -605 70 -146 165 -344 210 -440 46 -96 141 -296 212 -445 l129 -270 186 -3 185 -2 46 97 c46 98 93 198 507 1063 122 256 238 498 256 538 l33 72 -252 0 -252 0 -87 -183 c-108 -227 -330 -690 -390 -817 l-45 -95 -63 130 c-61 129 -136 284 -348 730 l-109 230 -252 3 c-138 1 -251 0 -251 -3z"/>
<path d="M5870 3155 l0 -885 230 0 230 0 0 189 c0 172 2 190 18 195 9 2 80 14 157 26 77 12 234 37 349 56 115 19 212 31 215 28 3 -3 49 -114 102 -247 l97 -242 246 -3 c135 -1 246 -1 246 1 0 2 -53 136 -119 298 -65 162 -121 304 -125 317 -6 19 4 35 63 99 113 120 170 264 171 424 0 102 -18 176 -67 278 -59 123 -150 217 -271 279 -138 72 -134 72 -879 72 l-663 0 0 -885z m1329 410 c67 -34 108 -118 92 -188 -22 -93 -64 -116 -277 -152 -283 -48 -646 -105 -665 -105 -18 0 -19 10 -19 230 l0 230 420 0 c350 0 426 -2 449 -15z"/>
<path d="M7972 3808 c144 -304 275 -579 437 -918 73 -151 169 -353 213 -448 l82 -172 185 2 185 3 105 220 c129 269 177 369 487 1018 134 280 244 514 244 519 0 4 -112 8 -249 8 l-249 0 -30 -62 c-16 -35 -79 -166 -140 -293 -60 -126 -162 -340 -226 -475 -64 -134 -120 -248 -124 -252 -4 -4 -124 238 -266 538 l-260 544 -252 0 -253 0 111 -232z"/>
</g>
</svg>